<?xml version="1.0" standalone="no"?>
<!DOCTYPE svg PUBLIC "-//W3C//DTD SVG 20010904//EN"
 "http://www.w3.org/TR/2001/REC-SVG-20010904/DTD/svg10.dtd">
<svg version="1.0" xmlns="http://www.w3.org/2000/svg"
 width="256.000000pt" height="256.000000pt" viewBox="0 0 256.000000 256.000000"
 preserveAspectRatio="xMidYMid meet">
<metadata>
Created by potrace 1.13, written by Peter Selinger 2001-2015
</metadata>
<g transform="translate(0.000000,256.000000) scale(0.100000,-0.100000)"
fill="#66bd36" stroke="none">
<path d="M582 2420 c-218 -30 -372 -163 -430 -373 -15 -56 -17 -130 -17 -767
0 -766 -1 -757 57 -876 33 -68 109 -152 178 -196 25 -16 77 -39 115 -51 70
-22 75 -22 795 -22 720 0 725 0 795 22 166 53 286 177 332 344 16 58 18 126
18 774 0 763 0 761 -52 873 -34 72 -129 172 -201 210 -126 67 -106 66 -852 68
-371 1 -703 -2 -738 -6z m933 -355 c157 -41 261 -101 380 -220 101 -101 157
-190 201 -320 39 -115 46 -313 15 -435 -120 -480 -623 -741 -1083 -562 -98 37
-197 104 -276 184 -68 69 -126 149 -114 158 4 4 30 25 58 48 29 23 56 42 60
42 5 0 24 -23 43 -51 80 -117 226 -218 371 -255 83 -21 226 -21 310 0 179 45
339 174 419 336 69 141 86 269 55 417 -87 423 -554 640 -936 436 -83 -44 -190
-145 -236 -221 l-32 -53 76 7 c65 6 76 5 68 -7 -28 -46 -217 -294 -224 -294
-5 0 -68 62 -140 138 l-132 137 49 0 c107 0 116 5 152 81 115 240 343 406 616
449 77 12 225 4 300 -15z m-171 -327 c3 -29 11 -153 17 -275 l12 -223 129
-140 c70 -78 128 -144 128 -148 0 -4 -8 -12 -18 -18 -15 -10 -42 10 -181 130
l-164 141 7 185 c3 102 9 233 13 293 6 102 7 107 28 107 20 0 23 -7 29 -52z"/>
</g>
</svg>
